PathFileType	4	(X/Y/Z)	..\data\2014051\dynamic\2014051_C4_04.trc
DataRate	CameraRate	NumFrames	NumMarkers	Units	OrigDataRate	OrigDataStartFrame	OrigNumFrames
100.000000	100.000000	4	44	mm	100.000000	149	199
Frame#	Time	L_IAS			L_IPS			R_IPS			R_IAS			L_FTC			L_FLE			L_FME			L_FAX			L_TTC			L_FAL			L_TAM			L_FCC			L_FM1			L_FM2			L_FM5			R_FTC			R_FLE			R_FME			R_FAX			R_TTC			R_FAL			R_TAM			R_FCC			R_FM1			R_FM2			R_FM5			CV7			TV10			SXS			SJN			L_SAE			L_HLE			L_HME			L_RSP			L_UHE			L_HM2			L_HM5			R_SAE			R_HLE			R_HME			R_RSP			R_UHE			R_HM2			R_HM5			
		X1	Y1	Z1	X2	Y2	Z2	X3	Y3	Z3	X4	Y4	Z4	X5	Y5	Z5	X6	Y6	Z6	X7	Y7	Z7	X8	Y8	Z8	X9	Y9	Z9	X10	Y10	Z10	X11	Y11	Z11	X12	Y12	Z12	X13	Y13	Z13	X14	Y14	Z14	X15	Y15	Z15	X16	Y16	Z16	X17	Y17	Z17	X18	Y18	Z18	X19	Y19	Z19	X20	Y20	Z20	X21	Y21	Z21	X22	Y22	Z22	X23	Y23	Z23	X24	Y24	Z24	X25	Y25	Z25	X26	Y26	Z26	X27	Y27	Z27	X28	Y28	Z28	X29	Y29	Z29	X30	Y30	Z30	X31	Y31	Z31	X32	Y32	Z32	X33	Y33	Z33	X34	Y34	Z34	X35	Y35	Z35	X36	Y36	Z36	X37	Y37	Z37	X38	Y38	Z38	X39	Y39	Z39	X40	Y40	Z40	X41	Y41	Z41	X42	Y42	Z42	X43	Y43	Z43	X44	Y44	Z44	

150	1.49	360.7500305175782	1080.108642578125	152.1772460937501	160.1533355712891	1095.705688476563	273.7770996093751	169.63232421875	1100.591674804688	341.2073364257813	382.9006042480469	1099.887329101563	421.1571044921877	281.6009216308594	954.6182250976565	103.6557388305665	264.1918945312501	528.4953002929689	127.1179351806641	294.3008117675781	523.5662231445314	256.5953674316407	213.8588562011719	481.1047363281251	126.7873992919922	248.5316162109375	426.8920898437501	184.1782684326172	-104.6378860473633	220.2571258544922	172.337646484375	-70.4857559204102	216.0894470214844	263.2025756835938	-161.1938018798829	236.7824707031251	228.9443511962891	-64.64099884033207	57.5167694091797	272.4455566406251	-55.94332885742192	58.96699905395509	214.7589874267579	-85.40016937255862	76.4741668701172	168.265853881836	319.8779602050781	974.8643798828127	490.4429321289064	390.9561462402344	542.8277587890626	415.9060363769533	385.1367797851563	551.7894897460939	286.5611877441407	368.0422973632812	473.446746826172	419.2895812988283	433.3073730468751	471.1820678710939	350.0316467285157	380.26123046875	58.28554534912111	360.9002685546876	418.2462768554688	87.79601287841798	271.9340820312501	337.2511596679688	18.45875930786133	295.3153686523439	562.5520629882814	22.10898590087891	287.450164794922	553.7348632812501	36.05250549316407	345.2952880859376	510.4244079589844	22.3873462677002	392.1915588378908	194.9192352294922	1623.044555664063	294.3188476562501	165.1827087402344	1260.513061523438	295.7226257324219	381.0411987304688	1352.997436523438	282.9460449218751	326.3466186523438	1528.382202148438	284.6937561035157	276.5593261718751	1560.572265625	102.994857788086	254.1680908203126	1176.96337890625	5.638066291809114	219.4837799072266	1161.339233398438	87.90270233154301	405.1478881835939	937.1710205078127	71.30973052978521	365.4507751464844	924.328308105469	-1.349777579307512	452.3433532714845	833.0504150390627	76.85133361816413	372.5502624511719	828.1195068359377	-0.4994305968284152	299.7234191894531	1532.276489257813	488.3495483398439	253.3764190673828	1169.42626953125	580.3646240234376	206.5106201171875	1149.64111328125	493.5345153808595	361.74462890625	908.769958496094	510.0293579101564	319.953369140625	894.6000976562502	581.1850585937501	410.6714172363282	800.3348388671877	517.2853393554689	311.1026306152344	795.8613891601565	571.4182128906251	
151	1.5	370.8091125488282	1081.944702148438	152.9949035644532	170.2238464355469	1096.99755859375	275.3771667480469	180.0326538085938	1101.869995117188	342.6591796875001	393.6736755371094	1100.664672851563	422.0222778320314	293.5855712890626	956.2458496093752	104.6781616210938	286.8193969726563	529.7869873046876	127.1526489257813	315.8921203613281	525.3248901367189	257.0815734863282	236.9041290283203	482.4560852050782	126.600082397461	271.4572753906251	428.3964233398439	184.3961029052735	-83.69926452636722	224.1039733886719	170.9321441650391	-49.70203018188482	219.3934936523438	261.7672119140626	-140.5869598388672	240.0443878173829	227.4813842773438	-43.06073379516606	60.61698150634767	268.9926452636719	-34.76560974121097	62.40563964843751	211.6206054687501	-64.42427825927737	80.55001068115236	165.486328125	329.9570922851562	975.7017822265627	491.319793701172	394.9256286621094	542.6469116210939	416.3886108398439	389.6534423828126	551.7742309570314	286.9673156738282	371.2216491699219	473.4912109375001	419.611541748047	436.8053894042969	470.7154235839845	350.6343078613282	380.2557983398438	58.35212707519533	360.7487792968751	418.3654479980469	87.71416473388673	271.8173217773439	337.1366882324219	18.34589767456055	295.308807373047	562.5411987304689	21.75858688354493	287.3303222656251	553.9677734375001	35.81648635864259	345.3656005859376	510.5408630371094	22.24147987365723	392.3616943359377	206.051986694336	1624.5947265625	295.0570983886719	175.6727600097656	1262.052612304688	297.5524291992188	391.5630493164063	1354.198608398438	283.306121826172	337.1730651855469	1529.727661132813	285.011688232422	286.4143676757813	1561.677734375	103.4650039672852	262.4365844726563	1178.103881835938	6.388186931610141	227.8561096191407	1162.625854492188	88.76673126220707	411.9144287109376	937.2546386718752	71.60541534423835	372.0957031250001	924.7968750000002	-1.145629167556717	458.0421752929689	832.5961914062502	77.2423171997071	378.5322875976563	828.578552246094	-0.4214164018630519	311.7792358398438	1534.097534179688	488.6749267578127	265.9732666015625	1171.603393554688	582.1909790039064	218.5385589599609	1151.388793945313	495.8314819335939	375.2273864746094	911.4774169921877	510.9936828613283	333.8052978515625	896.9118652343752	582.2976684570314	425.1703796386719	803.540954589844	518.0587768554689	325.741943359375	798.065612792969	572.3607177734376	
152	1.51	380.8618469238282	1083.803955078125	153.8123931884766	180.2285614013672	1098.217529296875	276.8331909179688	190.3030853271484	1103.035034179688	344.0103454589844	404.2871704101563	1101.311889648438	422.8890991210939	305.5961608886719	958.034118652344	105.591423034668	308.9956359863282	531.5498657226564	127.2498092651368	337.139404296875	527.4515991210939	257.5982666015626	259.5070495605469	484.1846923828126	126.4893951416016	294.4103088378907	430.3074951171876	184.3731079101563	-62.15188598632816	226.9860534667969	169.6753540039063	-28.03813934326176	221.7320251464844	260.3570251464844	-119.3505935668946	241.7711334228516	226.3240966796875	-19.24870300292972	63.01959228515626	265.2525024414063	-11.52527236938479	65.39293670654298	208.1126708984376	-41.75363540649417	83.85943603515626	162.4946899414063	339.8164672851562	976.382263183594	492.140350341797	398.7145996093751	542.4188232421876	416.7821044921877	393.8737182617188	551.6535644531251	287.3144531250001	374.2806701660156	473.4997558593751	419.872039794922	440.1191101074219	470.2238769531251	351.1499938964845	380.3273010253906	58.45137023925783	360.5805969238282	418.5291748046876	87.61882781982423	271.6909484863282	337.040771484375	18.28475952148438	295.2805786132814	562.5874633789064	21.35389518737793	287.2432861328126	554.2367553710939	35.49346923828126	345.4610900878907	510.6807861328126	22.01030731201172	392.5624084472658	217.1119842529297	1626.080322265625	295.7395019531251	186.0570373535156	1263.495239257813	299.3765563964844	401.9573364257813	1355.28759765625	283.6651916503907	347.8888854980469	1530.958740234375	285.2952880859376	296.1118774414063	1562.611694335938	103.8794860839844	270.5001220703126	1179.086303710938	7.086633205413853	236.0344848632813	1163.709716796875	89.59563446044926	418.6276855468751	937.2941894531252	71.83833312988288	378.6730346679688	925.1798095703127	-0.9656941294669643	463.8872680664064	832.222351074219	77.47322082519538	384.5512084960939	828.956481933594	-0.3817528486251361	323.7269592285156	1535.830688476563	488.9649353027345	278.5798645019531	1173.683349609375	584.0288696289064	230.4828491210938	1153.007568359375	498.1580505371095	388.7157592773438	914.1218872070315	511.9137268066408	347.7059936523438	899.1455688476565	583.3845214843751	439.7434997558594	806.7344360351565	518.7778320312501	340.4935913085938	800.1859130859377	573.2720336914064	
153	1.52	390.9432678222657	1085.68115234375	154.6810913085938	190.1924743652344	1099.371948242188	278.0951843261719	200.4527587890625	1104.0966796875	345.2230834960938	414.7242736816407	1101.871459960938	423.7947998046877	317.6433410644532	959.9437255859377	106.4051132202149	330.6710205078126	533.7202758789064	127.3997268676759	358.0494079589844	529.8562622070314	258.1091613769532	281.6303405761719	486.2269287109376	126.438331604004	317.3147888183594	432.5538635253907	184.0978393554688	-40.00985336303714	228.8094940185547	168.5482025146485	-5.529314517974886	223.0250091552735	258.9724731445313	-97.50034332275396	241.940902709961	225.4253082275391	6.56505012512204	64.62600708007814	261.3195495605469	13.5877408981323	67.79892730712892	204.3423309326172	-17.49954032897951	86.3086624145508	159.3541717529297	349.44287109375	976.9211425781252	492.9149780273439	402.3731079101563	542.1667480468751	417.0942687988283	397.8607788085938	551.4660644531251	287.6147766113282	377.26416015625	473.4947204589845	420.0761718750002	443.2871704101563	469.7208862304689	351.5735168457032	380.4737243652344	58.5893020629883	360.3955383300782	418.7391662597657	87.52003479003908	271.5542602539064	336.9732971191406	18.28592681884766	295.2310485839845	562.6831665039064	20.91315269470215	287.1850585937501	554.5404663085939	35.11120986938477	345.5775451660157	510.8437194824219	21.72244262695313	392.7991638183595	228.0956420898438	1627.49609375	296.3710937500001	196.3408660888672	1264.841186523438	301.1759643554688	412.2405395507813	1356.279418945313	284.0403747558595	358.4984130859375	1532.083740234375	285.5561523437501	305.6796875000001	1563.39697265625	104.2501678466798	278.3547668457032	1179.9365234375	7.752741336822545	244.021713256836	1164.627197265625	90.41126251220707	425.2833557128907	937.2991333007815	72.00833892822273	385.157684326172	925.4876708984377	-0.7981646060943134	469.8846740722657	831.9365844726565	77.52317810058601	390.580291748047	829.260437011719	-0.3702785372733592	335.539306640625	1537.490600585938	489.2318420410158	291.1880187988281	1175.672241210938	585.8508300781251	242.3592681884766	1154.513305664063	500.4732666015627	402.1938781738282	916.6997070312502	512.7893066406251	361.638671875	901.3123779296877	584.4468994140626	454.3291015625001	809.8840332031252	519.4385986328126	355.3108825683594	802.2402343750002	574.1741943359376	
